<svg width="23" height="22" viewBox="0 0 23 22" fill="none" xmlns="http://www.w3.org/2000/svg">
<path fill-rule="evenodd" clip-rule="evenodd" d="M4.87216 4.3722C5.88917 3.35519 7.39882 2.97917 9.29996 2.97917H13.7C15.6011 2.97917 17.1107 3.35519 18.1278 4.3722C19.1448 5.38922 19.5208 6.89886 19.5208 8.8C19.5208 9.1797 19.213 9.4875 18.8333 9.4875C18.4536 9.4875 18.1458 9.1797 18.1458 8.8C18.1458 7.03448 17.7885 5.97746 17.1555 5.34447C16.5225 4.71149 15.4655 4.35417 13.7 4.35417H9.29996C7.53443 4.35417 6.47742 4.71149 5.84443 5.34447C5.21144 5.97746 4.85413 7.03448 4.85413 8.8V13.2C4.85413 14.9655 5.21144 16.0225 5.84443 16.6555C6.47742 17.2885 7.53443 17.6458 9.29996 17.6458C9.67966 17.6458 9.98746 17.9536 9.98746 18.3333C9.98746 18.713 9.67966 19.0208 9.29996 19.0208C7.39882 19.0208 5.88917 18.6448 4.87216 17.6278C3.85514 16.6108 3.47913 15.1011 3.47913 13.2V8.8C3.47913 6.89886 3.85514 5.38922 4.87216 4.3722Z" fill="#F1F1F1"/>
<path fill-rule="evenodd" clip-rule="evenodd" d="M7.17528 6.67533C7.88292 5.96769 8.91132 5.72917 10.125 5.72917H12.875C14.2134 5.72917 15.3273 6.01674 16.0281 6.90859C16.2626 7.20715 16.2108 7.63935 15.9122 7.87393C15.6137 8.10852 15.1814 8.05665 14.9469 7.75809C14.6393 7.3666 14.0665 7.10417 12.875 7.10417H10.125C9.04693 7.10417 8.47117 7.32399 8.14755 7.6476C7.82394 7.97121 7.60413 8.54698 7.60413 9.62501V12.375C7.60413 13.5667 7.86671 14.1423 8.25265 14.4499C8.54956 14.6866 8.5984 15.1191 8.36173 15.416C8.12506 15.7129 7.69251 15.7618 7.3956 15.5251C6.51654 14.8244 6.22913 13.7133 6.22913 12.375V9.62501C6.22913 8.41136 6.46764 7.38297 7.17528 6.67533Z" fill="#F1F1F1"/>
<path fill-rule="evenodd" clip-rule="evenodd" d="M7.84247 1.14584C8.22216 1.14584 8.52997 1.45364 8.52997 1.83334V3.66667C8.52997 4.04637 8.22216 4.35417 7.84247 4.35417C7.46277 4.35417 7.15497 4.04637 7.15497 3.66667V1.83334C7.15497 1.45364 7.46277 1.14584 7.84247 1.14584Z" fill="#F1F1F1"/>
<path fill-rule="evenodd" clip-rule="evenodd" d="M11.5 1.14584C11.8797 1.14584 12.1875 1.45364 12.1875 1.83334V3.66667C12.1875 4.04637 11.8797 4.35417 11.5 4.35417C11.1203 4.35417 10.8125 4.04637 10.8125 3.66667V1.83334C10.8125 1.45364 11.1203 1.14584 11.5 1.14584Z" fill="#F1F1F1"/>
<path fill-rule="evenodd" clip-rule="evenodd" d="M15.1666 1.14584C15.5463 1.14584 15.8541 1.45364 15.8541 1.83334V3.66667C15.8541 4.04637 15.5463 4.35417 15.1666 4.35417C14.7869 4.35417 14.4791 4.04637 14.4791 3.66667V1.83334C14.4791 1.45364 14.7869 1.14584 15.1666 1.14584Z" fill="#F1F1F1"/>
<path fill-rule="evenodd" clip-rule="evenodd" d="M18.1458 7.33334C18.1458 6.95364 18.4536 6.64584 18.8333 6.64584H20.6666C21.0463 6.64584 21.3541 6.95364 21.3541 7.33334C21.3541 7.71303 21.0463 8.02084 20.6666 8.02084H18.8333C18.4536 8.02084 18.1458 7.71303 18.1458 7.33334Z" fill="#F1F1F1"/>
<path fill-rule="evenodd" clip-rule="evenodd" d="M7.84247 17.6458C8.22216 17.6458 8.52997 17.9536 8.52997 18.3333V20.1667C8.52997 20.5464 8.22216 20.8542 7.84247 20.8542C7.46277 20.8542 7.15497 20.5464 7.15497 20.1667V18.3333C7.15497 17.9536 7.46277 17.6458 7.84247 17.6458Z" fill="#F1F1F1"/>
<path fill-rule="evenodd" clip-rule="evenodd" d="M1.64581 7.33334C1.64581 6.95364 1.95362 6.64584 2.33331 6.64584H4.16665C4.54634 6.64584 4.85415 6.95364 4.85415 7.33334C4.85415 7.71303 4.54634 8.02084 4.16665 8.02084H2.33331C1.95362 8.02084 1.64581 7.71303 1.64581 7.33334Z" fill="#F1F1F1"/>
<path fill-rule="evenodd" clip-rule="evenodd" d="M1.64581 11C1.64581 10.6203 1.95362 10.3125 2.33331 10.3125H4.16665C4.54634 10.3125 4.85415 10.6203 4.85415 11C4.85415 11.3797 4.54634 11.6875 4.16665 11.6875H2.33331C1.95362 11.6875 1.64581 11.3797 1.64581 11Z" fill="#F1F1F1"/>
<path fill-rule="evenodd" clip-rule="evenodd" d="M1.64581 14.6667C1.64581 14.287 1.95362 13.9792 2.33331 13.9792H4.16665C4.54634 13.9792 4.85415 14.287 4.85415 14.6667C4.85415 15.0464 4.54634 15.3542 4.16665 15.3542H2.33331C1.95362 15.3542 1.64581 15.0464 1.64581 14.6667Z" fill="#F1F1F1"/>
<path fill-rule="evenodd" clip-rule="evenodd" d="M15.8175 14.8133C15.3922 14.8133 15.0475 15.1581 15.0475 15.5833C15.0475 16.0086 15.3922 16.3533 15.8175 16.3533C16.2427 16.3533 16.5875 16.0086 16.5875 15.5833C16.5875 15.1581 16.2427 14.8133 15.8175 14.8133ZM13.6725 15.5833C13.6725 14.3987 14.6328 13.4383 15.8175 13.4383C17.0021 13.4383 17.9625 14.3987 17.9625 15.5833C17.9625 16.768 17.0021 17.7283 15.8175 17.7283C14.6328 17.7283 13.6725 16.768 13.6725 15.5833Z" fill="#F1F1F1"/>
<path fill-rule="evenodd" clip-rule="evenodd" d="M14.3651 11.755C14.3208 11.6807 14.2417 11.675 14.1983 11.7008L14.1927 11.7041L13.3496 12.1951C13.2444 12.2543 13.2038 12.3967 13.2672 12.5053L13.2685 12.5075C13.5619 13.0148 13.6746 13.6346 13.3655 14.1719C13.056 14.7098 12.463 14.9233 11.8758 14.9233C11.7514 14.9233 11.6467 15.028 11.6467 15.1525V16.005C11.6467 16.1457 11.7555 16.2362 11.8633 16.2343L11.8758 16.2341C12.463 16.2341 13.056 16.4477 13.3655 16.9856C13.6746 17.5229 13.5619 18.1427 13.2685 18.65L13.2672 18.6522C13.2077 18.7542 13.2368 18.8964 13.3586 18.9676C13.3585 18.9676 13.3587 18.9677 13.3586 18.9676L14.1892 19.4514C14.2488 19.4845 14.3282 19.4645 14.3651 19.4025L14.3663 19.4005L14.4187 19.3131C14.7119 18.8091 15.1906 18.4044 15.8083 18.4044C16.4261 18.4044 16.9048 18.8091 17.198 19.3132L17.2516 19.4025C17.2958 19.4768 17.375 19.4825 17.4184 19.4567L17.424 19.4534L18.2671 18.9624C18.3722 18.9032 18.4128 18.7608 18.3495 18.6522L18.3482 18.65C18.0548 18.1427 17.942 17.5229 18.2512 16.9856C18.5606 16.4477 19.1537 16.2342 19.7408 16.2342C19.8653 16.2342 19.97 16.1295 19.97 16.005V15.1525C19.97 15.028 19.8653 14.9233 19.7408 14.9233C19.1537 14.9233 18.5606 14.7098 18.2512 14.1719C17.942 13.6346 18.0548 13.0148 18.3482 12.5075L18.3495 12.5053C18.409 12.4032 18.3798 12.261 18.2579 12.1898C18.2579 12.1897 18.2579 12.1898 18.2579 12.1898L17.4275 11.7061C17.3678 11.673 17.2885 11.693 17.2516 11.755L17.2504 11.7571L17.198 11.8444C16.9048 12.3484 16.4261 12.7531 15.8083 12.7531C15.1906 12.7531 14.7119 12.3484 14.4187 11.8444L14.3651 11.755ZM15.5459 11.0505C15.1321 10.3567 14.224 10.0878 13.4983 10.5173L12.6703 10.9995C11.8999 11.4366 11.6308 12.4272 12.0787 13.1967C12.1785 13.3696 12.1767 13.4579 12.1721 13.4852C12.1506 13.5029 12.0751 13.5483 11.8758 13.5483C10.992 13.5483 10.2717 14.2686 10.2717 15.1525V16.005C10.2717 16.8884 10.9837 17.6212 11.8806 17.6092C12.0763 17.6099 12.1508 17.6547 12.1721 17.6723C12.1767 17.6996 12.1785 17.7879 12.0787 17.9608C11.626 18.7385 11.9086 19.7136 12.6661 20.1555L13.5007 20.6416L13.5056 20.6444C14.2153 21.05 15.1244 20.8136 15.5459 20.107C15.5461 20.1066 15.5464 20.1062 15.5466 20.1058L15.6004 20.0162L15.606 20.0067C15.7052 19.8351 15.7819 19.7916 15.8083 19.7814C15.8348 19.7916 15.9115 19.8351 16.0107 20.0067L16.0701 20.1058C16.0703 20.1062 16.0705 20.1066 16.0708 20.107C16.4846 20.8008 17.3927 21.0697 18.1184 20.6402L18.9463 20.158C19.7168 19.7209 19.9858 18.7303 19.538 17.9608C19.4382 17.788 19.44 17.6996 19.4446 17.6723C19.466 17.6546 19.5416 17.6092 19.7408 17.6092C20.6247 17.6092 21.345 16.8889 21.345 16.005V15.1525C21.345 14.2686 20.6247 13.5483 19.7408 13.5483C19.5416 13.5483 19.466 13.5029 19.4446 13.4852C19.44 13.4579 19.4382 13.3695 19.538 13.1966C19.9906 12.419 19.708 11.4438 18.9506 11.002L18.116 10.5159L18.1111 10.5131C17.4013 10.1075 16.4922 10.3439 16.0708 11.0505C16.0705 11.0509 16.0703 11.0513 16.0701 11.0517L16.0163 11.1413L16.0107 11.1508C15.9115 11.3224 15.8348 11.3659 15.8083 11.3761C15.7819 11.3659 15.7052 11.3224 15.606 11.1508L15.5466 11.0517C15.5464 11.0513 15.5461 11.0509 15.5459 11.0505Z" fill="#F1F1F1"/>
</svg>
