<svg width="23" height="22" viewBox="0 0 23 22" fill="none" xmlns="http://www.w3.org/2000/svg">
<path fill-rule="evenodd" clip-rule="evenodd" d="M13.5347 2.03471C14.1674 1.40197 15.0607 1.14584 16.0833 1.14584H17.9166C18.9393 1.14584 19.8325 1.40197 20.4653 2.03471C21.098 2.66745 21.3541 3.5607 21.3541 4.58334V6.41668C21.3541 7.43932 21.098 8.33257 20.4653 8.96531C19.8325 9.59805 18.9393 9.85418 17.9166 9.85418H16.0833C15.0607 9.85418 14.1674 9.59805 13.5347 8.96531C12.9019 8.33257 12.6458 7.43932 12.6458 6.41668V4.58334C12.6458 3.5607 12.9019 2.66745 13.5347 2.03471ZM14.5069 3.00698C14.223 3.29091 14.0208 3.77265 14.0208 4.58334V6.41668C14.0208 7.22737 14.223 7.70911 14.5069 7.99304C14.7909 8.27697 15.2726 8.47918 16.0833 8.47918H17.9166C18.7273 8.47918 19.2091 8.27697 19.493 7.99304C19.7769 7.70911 19.9791 7.22737 19.9791 6.41668V4.58334C19.9791 3.77265 19.7769 3.29091 19.493 3.00698C19.2091 2.72305 18.7273 2.52084 17.9166 2.52084H16.0833C15.2726 2.52084 14.7909 2.72305 14.5069 3.00698Z" fill="#0A0A0A"/>
<path fill-rule="evenodd" clip-rule="evenodd" d="M2.53468 13.0347C3.16742 12.402 4.06067 12.1458 5.08331 12.1458H6.91665C7.93929 12.1458 8.83254 12.402 9.46528 13.0347C10.098 13.6674 10.3541 14.5607 10.3541 15.5833V17.4167C10.3541 18.4393 10.098 19.3326 9.46528 19.9653C8.83254 20.5981 7.93929 20.8542 6.91665 20.8542H5.08331C4.06067 20.8542 3.16742 20.5981 2.53468 19.9653C1.90194 19.3326 1.64581 18.4393 1.64581 17.4167V15.5833C1.64581 14.5607 1.90194 13.6674 2.53468 13.0347ZM3.50695 14.007C3.22302 14.2909 3.02081 14.7727 3.02081 15.5833V17.4167C3.02081 18.2274 3.22302 18.7091 3.50695 18.993C3.79088 19.277 4.27262 19.4792 5.08331 19.4792H6.91665C7.72734 19.4792 8.20908 19.277 8.49301 18.993C8.77694 18.7091 8.97915 18.2274 8.97915 17.4167V15.5833C8.97915 14.7727 8.77694 14.2909 8.49301 14.007C8.20908 13.7231 7.72734 13.5208 6.91665 13.5208H5.08331C4.27262 13.5208 3.79088 13.7231 3.50695 14.007Z" fill="#0A0A0A"/>
<path fill-rule="evenodd" clip-rule="evenodd" d="M5.99998 2.52084C4.35463 2.52084 3.02081 3.85466 3.02081 5.50001C3.02081 7.14536 4.35463 8.47918 5.99998 8.47918C7.64533 8.47918 8.97915 7.14536 8.97915 5.50001C8.97915 3.85466 7.64533 2.52084 5.99998 2.52084ZM1.64581 5.50001C1.64581 3.09527 3.59524 1.14584 5.99998 1.14584C8.40472 1.14584 10.3541 3.09527 10.3541 5.50001C10.3541 7.90475 8.40472 9.85418 5.99998 9.85418C3.59524 9.85418 1.64581 7.90475 1.64581 5.50001Z" fill="#0A0A0A"/>
<path fill-rule="evenodd" clip-rule="evenodd" d="M17 13.5208C15.3546 13.5208 14.0208 14.8547 14.0208 16.5C14.0208 18.1454 15.3546 19.4792 17 19.4792C18.6453 19.4792 19.9791 18.1454 19.9791 16.5C19.9791 14.8547 18.6453 13.5208 17 13.5208ZM12.6458 16.5C12.6458 14.0953 14.5952 12.1458 17 12.1458C19.4047 12.1458 21.3541 14.0953 21.3541 16.5C21.3541 18.9047 19.4047 20.8542 17 20.8542C14.5952 20.8542 12.6458 18.9047 12.6458 16.5Z" fill="#0A0A0A"/>
</svg>
