<svg width="30" height="30" viewBox="0 0 61 61" fill="none" xmlns="http://www.w3.org/2000/svg">
<path d="M49.6672 55.5863C49.6672 58.499 47.4855 60.858 44.791 60.858H13.7048C11.0132 60.858 8.83057 58.498 8.83057 55.5863V8.05105C8.83057 5.13544 11.0142 2.77646 13.7048 2.77646H44.791C47.4855 2.77646 49.6672 5.13544 49.6672 8.05105V55.5863Z" fill="#0000FF" fill-opacity="0.3"/>
<path d="M29.4506 10.0164C29.4506 10.5702 28.3469 11.0181 26.9916 11.0181H11.2926C9.93348 11.0181 8.83167 10.5702 8.83167 10.0164V0.999828C8.83167 0.447969 9.93252 0 11.2926 0H26.9916C28.3469 0 29.4506 0.447969 29.4506 0.999828V10.0164Z" fill="#0000FF" fill-opacity="0.3"/>
<path d="M52.0998 53.375C52.0998 55.8464 49.8962 57.8451 47.175 57.8451H15.761C13.0436 57.8451 10.8362 55.8455 10.8362 53.375V13.0864C10.8362 10.6169 13.0436 8.61624 15.761 8.61624H47.175C49.8962 8.61624 52.0998 10.6178 52.0998 13.0864V53.375Z" fill="#D0D2D3"/>
<path d="M52.0998 50.2239C52.0998 52.6954 49.8962 54.6941 47.175 54.6941H15.761C13.0436 54.6941 10.8362 52.6944 10.8362 50.2239V9.93535C10.8362 7.4658 13.0436 5.4671 15.761 5.4671H47.175C49.8962 5.4671 52.0998 7.46676 52.0998 9.93535V50.2239Z" fill="white"/>
<path d="M41.0796 7.89186C41.0796 8.18923 39.6137 8.43132 37.8104 8.43132H16.937C15.1298 8.43132 13.6639 8.18923 13.6639 7.89186V3.03568C13.6639 2.73545 15.1298 2.49622 16.937 2.49622H37.8104C39.6137 2.49622 41.0796 2.73545 41.0796 3.03568V7.89186Z" fill="#D0D2D3"/>
<path d="M19.1291 17.1848H46.3522C48.1841 17.1848 48.1841 14.6114 46.3522 14.6114H19.1291C17.3038 14.6114 17.3038 17.1848 19.1291 17.1848ZM19.1291 22.4127H46.3522C48.1841 22.4127 48.1841 19.8412 46.3522 19.8412H19.1291C17.3038 19.8412 17.3038 22.4127 19.1291 22.4127ZM19.1291 27.755H46.3522C48.1841 27.755 48.1841 25.1815 46.3522 25.1815H19.1291C17.3038 25.1815 17.3038 27.755 19.1291 27.755ZM19.1291 32.9781H46.3522C48.1841 32.9781 48.1841 30.4066 46.3522 30.4066H19.1291C17.3038 30.4066 17.3038 32.9781 19.1291 32.9781ZM19.1291 43.0622H31.6607C33.4869 43.0622 33.4869 40.4897 31.6607 40.4897H19.1291C17.3038 40.4887 17.3038 43.0622 19.1291 43.0622Z" fill="#35494D"/>
</svg>
