<svg width="23" height="22" viewBox="0 0 23 22" fill="none" xmlns="http://www.w3.org/2000/svg">
<path fill-rule="evenodd" clip-rule="evenodd" d="M2.67577 6.24913C3.4874 5.28419 4.87891 4.8125 6.9167 4.8125H16.0834C18.1211 4.8125 19.5127 5.28419 20.3243 6.24913C21.128 7.20469 21.2045 8.46006 21.0757 9.63061L20.3878 16.9674C20.2869 17.9098 20.0503 18.943 19.2088 19.7117C18.3736 20.4748 17.0796 20.8542 15.1667 20.8542H7.83336C5.92042 20.8542 4.62643 20.4748 3.79122 19.7117C2.94978 18.943 2.71325 17.9098 2.61227 16.9674L2.6113 16.9583L1.92439 9.63063C1.79557 8.46008 1.87202 7.2047 2.67577 6.24913ZM3.72804 7.13421C3.29562 7.6483 3.1739 8.42076 3.29169 9.48522L3.29296 9.49665L3.97993 16.8254C4.07164 17.6773 4.26149 18.279 4.71863 18.6966C5.18279 19.1206 6.06131 19.4792 7.83336 19.4792H15.1667C16.9387 19.4792 17.8173 19.1206 18.2814 18.6966C18.7386 18.279 18.9284 17.6773 19.0201 16.8254L19.7083 9.48521C19.8261 8.42075 19.7044 7.6483 19.272 7.13421C18.8461 6.62789 17.9597 6.1875 16.0834 6.1875H6.9167C5.04031 6.1875 4.15391 6.62789 3.72804 7.13421Z" fill="#F1F1F1"/>
<path fill-rule="evenodd" clip-rule="evenodd" d="M8.56092 3.71284C8.52198 4.01111 8.52088 4.35008 8.52088 4.76666V5.49999C8.52088 5.87969 8.21307 6.18749 7.83338 6.18749C7.45368 6.18749 7.14588 5.87969 7.14588 5.49999L7.14587 4.74284C7.14585 4.3546 7.14583 3.93056 7.19749 3.53483C7.25103 3.12481 7.36574 2.6895 7.63448 2.30067C8.19982 1.4827 9.23543 1.14583 10.7667 1.14583H12.2334C13.7647 1.14583 14.8003 1.4827 15.3656 2.30067C15.6343 2.6895 15.7491 3.12481 15.8026 3.53483C15.8543 3.93056 15.8542 4.35461 15.8542 4.74284L15.8542 5.49999C15.8542 5.87969 15.5464 6.18749 15.1667 6.18749C14.787 6.18749 14.4792 5.87969 14.4792 5.49999V4.76666C14.4792 4.35008 14.4781 4.01111 14.4392 3.71284C14.401 3.42076 14.3324 3.22413 14.2345 3.08244C14.0665 2.83938 13.6354 2.52083 12.2334 2.52083H10.7667C9.36466 2.52083 8.9336 2.83938 8.76561 3.08244C8.66768 3.22413 8.59906 3.42076 8.56092 3.71284Z" fill="#F1F1F1"/>
<path fill-rule="evenodd" clip-rule="evenodd" d="M10.3549 11.6882C10.3542 11.7537 10.3542 11.8282 10.3542 11.9167V12.8608C10.3542 13.1189 10.3564 13.3087 10.3789 13.4697C10.4004 13.6246 10.4346 13.7 10.4636 13.7409C10.496 13.7865 10.6572 13.9792 11.5 13.9792C12.3467 13.9792 12.506 13.7847 12.5376 13.7395C12.5668 13.6978 12.6009 13.6213 12.6221 13.4646C12.6442 13.3017 12.6459 13.111 12.6459 12.8517V11.9167C12.6459 11.8282 12.6458 11.7537 12.6451 11.6882C12.5797 11.6875 12.5051 11.6875 12.4167 11.6875H10.5834C10.495 11.6875 10.4204 11.6875 10.3549 11.6882ZM10.5533 10.3125C10.5633 10.3125 10.5733 10.3125 10.5834 10.3125H12.4167C12.4267 10.3125 12.4368 10.3125 12.4468 10.3125C12.6495 10.3124 12.8549 10.3124 13.0226 10.331C13.1934 10.35 13.4772 10.4008 13.7049 10.6284C13.9326 10.8561 13.9834 11.1399 14.0023 11.3108C14.021 11.4784 14.0209 11.6838 14.0209 11.8865C14.0209 11.8966 14.0209 11.9066 14.0209 11.9167V12.8619C14.0209 13.1 14.0209 13.3817 13.9847 13.649C13.9472 13.9263 13.865 14.241 13.6639 14.5282C13.2349 15.1407 12.4776 15.3542 11.5 15.3542C10.5278 15.3542 9.77241 15.1435 9.34184 14.536C9.13939 14.2503 9.05559 13.9367 9.01698 13.6593C8.97924 13.388 8.9792 13.1024 8.9792 12.8608V11.9167C8.9792 11.9066 8.97919 11.8966 8.97919 11.8865C8.97915 11.6838 8.9791 11.4784 8.99772 11.3108C9.01671 11.1399 9.06747 10.8561 9.29514 10.6284C9.52282 10.4008 9.80663 10.35 9.97749 10.331C10.1451 10.3124 10.3505 10.3124 10.5533 10.3125Z" fill="#F1F1F1"/>
<path fill-rule="evenodd" clip-rule="evenodd" d="M20.9019 9.67896C21.1252 9.98604 21.0573 10.416 20.7503 10.6393C18.5355 12.2501 16.005 13.2082 13.4193 13.5338C13.0426 13.5812 12.6987 13.3143 12.6513 12.9376C12.6038 12.5608 12.8708 12.217 13.2475 12.1696C15.6117 11.8718 17.9213 10.9966 19.9415 9.52732C20.2486 9.304 20.6786 9.37189 20.9019 9.67896Z" fill="#F1F1F1"/>
<path fill-rule="evenodd" clip-rule="evenodd" d="M2.33434 9.94252C2.5488 9.62919 2.97666 9.54904 3.28999 9.76349C5.25981 11.1117 7.48111 11.9243 9.74318 12.1776C10.1205 12.2198 10.3922 12.56 10.3499 12.9373C10.3077 13.3147 9.96751 13.5863 9.59018 13.5441C7.10391 13.2657 4.66855 12.3733 2.51337 10.8982C2.20003 10.6837 2.11988 10.2559 2.33434 9.94252Z" fill="#F1F1F1"/>
</svg>
