<svg width="23" height="22" viewBox="0 0 23 22" fill="none" xmlns="http://www.w3.org/2000/svg">
<path fill-rule="evenodd" clip-rule="evenodd" d="M11.5 8.9375C10.3609 8.9375 9.4375 9.86091 9.4375 11C9.4375 12.1391 10.3609 13.0625 11.5 13.0625C12.6391 13.0625 13.5625 12.1391 13.5625 11C13.5625 9.86091 12.6391 8.9375 11.5 8.9375ZM8.0625 11C8.0625 9.10152 9.60152 7.5625 11.5 7.5625C13.3985 7.5625 14.9375 9.10152 14.9375 11C14.9375 12.8985 13.3985 14.4375 11.5 14.4375C9.60152 14.4375 8.0625 12.8985 8.0625 11Z" fill="#F1F1F1"/>
<path fill-rule="evenodd" clip-rule="evenodd" d="M9.30316 3.45599C9.0578 3.0472 8.54107 2.92004 8.15733 3.14834L8.14733 3.15429L6.56145 4.0617C6.05969 4.34842 5.88658 4.99848 6.1736 5.49523L5.57831 5.83917L6.17312 5.49441C6.6636 6.34061 6.79545 7.26808 6.35732 8.02837C5.91924 8.78856 5.05104 9.13917 4.07498 9.13917C3.49453 9.13917 3.02081 9.61734 3.02081 10.1933V11.8067C3.02081 12.3827 3.49453 12.8608 4.07498 12.8608C5.05104 12.8608 5.91924 13.2114 6.35732 13.9716C6.7954 14.7318 6.66363 15.6591 6.17331 16.5053C5.8867 17.0019 6.05948 17.6515 6.56108 17.9381L8.15738 18.8516C8.54111 19.0799 9.05777 18.9528 9.30314 18.544L9.40166 18.3739C9.89197 17.528 10.631 16.9515 11.508 16.9515C12.3857 16.9515 13.1224 17.5284 13.6083 18.3753C13.6085 18.3757 13.6087 18.376 13.6089 18.3764L13.706 18.544C13.9513 18.9528 14.4681 19.08 14.8518 18.8517L14.8618 18.8457L16.4477 17.9383C16.9481 17.6523 17.1239 17.0113 16.8348 16.5035C16.3453 15.6578 16.214 14.7313 16.6518 13.9716C17.0899 13.2114 17.9581 12.8608 18.9341 12.8608C19.5146 12.8608 19.9883 12.3827 19.9883 11.8067V10.1933C19.9883 9.61288 19.5101 9.13917 18.9341 9.13917C17.9581 9.13917 17.0899 8.78856 16.6518 8.02837C16.2138 7.26823 16.3455 6.34097 16.8357 5.4949C17.1225 4.99819 16.9497 4.34857 16.4481 4.06192L14.8518 3.14843C14.468 2.92013 13.9513 3.0472 13.706 3.45599L13.6075 3.62613C13.1172 4.47204 12.3781 5.04854 11.5011 5.04854C10.6236 5.04854 9.88684 4.47172 9.40101 3.62499C9.40074 3.62452 9.40047 3.62405 9.4002 3.62358L9.30316 3.45599ZM7.45976 1.96342C8.52257 1.33517 9.87067 1.72061 10.4867 2.75599L10.4908 2.76301L10.5916 2.9372L10.5931 2.93975C10.9323 3.53142 11.2861 3.67354 11.5011 3.67354C11.7172 3.67354 12.0737 3.53021 12.4175 2.9372C12.4174 2.9373 12.4176 2.9371 12.4175 2.9372L12.5224 2.75596C13.1384 1.72058 14.4866 1.33517 15.5494 1.96343L17.1302 2.86808C18.2968 3.5347 18.6924 5.02986 18.0261 6.18311L18.0256 6.18393C17.6819 6.77689 17.7359 7.15567 17.8432 7.34184C17.9505 7.52811 18.251 7.76417 18.9341 7.76417C20.2648 7.76417 21.3633 8.84879 21.3633 10.1933V11.8067C21.3633 13.1373 20.2787 14.2358 18.9341 14.2358C18.251 14.2358 17.9505 14.4719 17.8432 14.6582C17.7359 14.8443 17.6819 15.2231 18.0256 15.8161L18.0277 15.8197C18.6907 16.9799 18.2977 18.4645 17.1306 19.1317C17.1305 19.1318 17.1307 19.1316 17.1306 19.1317L15.5493 20.0366C14.4865 20.6648 13.1384 20.2794 12.5225 19.244L12.5183 19.237L12.4175 19.0628L12.416 19.0602C12.0769 18.4686 11.7231 18.3265 11.508 18.3265C11.2919 18.3265 10.9354 18.4698 10.5916 19.0628C10.5916 19.0629 10.5917 19.0627 10.5916 19.0628L10.4867 19.244C9.87073 20.2794 8.52263 20.6648 7.45983 20.0366L5.87888 19.1319C5.87876 19.1318 5.87901 19.132 5.87888 19.1319C4.7126 18.4652 4.31678 16.97 4.98303 15.8169L4.98351 15.8161C5.3272 15.2231 5.27326 14.8443 5.16598 14.6582C5.05863 14.4719 4.75809 14.2358 4.07498 14.2358C2.73043 14.2358 1.64581 13.1373 1.64581 11.8067V10.1933C1.64581 8.86266 2.73043 7.76417 4.07498 7.76417C4.75809 7.76417 5.05863 7.52811 5.16598 7.34184C5.27326 7.15567 5.3272 6.77689 4.98351 6.18393L4.98303 6.18311C4.31678 5.02998 4.71222 3.53501 5.87851 2.8683L7.45976 1.96342Z" fill="#F1F1F1"/>
</svg>
