<svg width="23" height="22" viewBox="0 0 23 22" fill="none" xmlns="http://www.w3.org/2000/svg">
<path fill-rule="evenodd" clip-rule="evenodd" d="M9.89581 17.875C9.89581 17.4953 10.2036 17.1875 10.5833 17.1875H19.75C20.1297 17.1875 20.4375 17.4953 20.4375 17.875C20.4375 18.2547 20.1297 18.5625 19.75 18.5625H10.5833C10.2036 18.5625 9.89581 18.2547 9.89581 17.875Z" fill="#F1F1F1"/>
<path fill-rule="evenodd" clip-rule="evenodd" d="M9.89581 11.4583C9.89581 11.0786 10.2036 10.7708 10.5833 10.7708H19.75C20.1297 10.7708 20.4375 11.0786 20.4375 11.4583C20.4375 11.838 20.1297 12.1458 19.75 12.1458H10.5833C10.2036 12.1458 9.89581 11.838 9.89581 11.4583Z" fill="#F1F1F1"/>
<path fill-rule="evenodd" clip-rule="evenodd" d="M9.89581 5.04166C9.89581 4.66196 10.2036 4.35416 10.5833 4.35416H19.75C20.1297 4.35416 20.4375 4.66196 20.4375 5.04166C20.4375 5.42135 20.1297 5.72916 19.75 5.72916H10.5833C10.2036 5.72916 9.89581 5.42135 9.89581 5.04166Z" fill="#F1F1F1"/>
<path fill-rule="evenodd" clip-rule="evenodd" d="M7.4028 2.72219C7.67129 2.99068 7.67129 3.42598 7.4028 3.69446L4.6528 6.44446C4.38432 6.71295 3.94902 6.71295 3.68053 6.44446L2.76386 5.5278C2.49538 5.25931 2.49538 4.82401 2.76386 4.55553C3.03235 4.28704 3.46765 4.28704 3.73614 4.55553L4.16667 4.98606L6.43053 2.72219C6.69902 2.45371 7.13432 2.45371 7.4028 2.72219Z" fill="#F1F1F1"/>
<path fill-rule="evenodd" clip-rule="evenodd" d="M7.4028 9.13886C7.67129 9.40735 7.67129 9.84265 7.4028 10.1111L4.6528 12.8611C4.38432 13.1296 3.94902 13.1296 3.68053 12.8611L2.76386 11.9445C2.49538 11.676 2.49538 11.2407 2.76386 10.9722C3.03235 10.7037 3.46765 10.7037 3.73614 10.9722L4.16667 11.4027L6.43053 9.13886C6.69902 8.87038 7.13432 8.87038 7.4028 9.13886Z" fill="#F1F1F1"/>
<path fill-rule="evenodd" clip-rule="evenodd" d="M7.4028 15.5555C7.67129 15.824 7.67129 16.2593 7.4028 16.5278L4.6528 19.2778C4.38432 19.5463 3.94902 19.5463 3.68053 19.2778L2.76386 18.3611C2.49538 18.0926 2.49538 17.6573 2.76386 17.3889C3.03235 17.1204 3.46765 17.1204 3.73614 17.3889L4.16667 17.8194L6.43053 15.5555C6.69902 15.287 7.13432 15.287 7.4028 15.5555Z" fill="#F1F1F1"/>
</svg>
